<svg width="28" height="28" viewBox="0 0 28 28" fill="none" xmlns="http://www.w3.org/2000/svg">
  <path d="M27.7325 9.32452L24.4326 5.79761L22.2276 6.96353L17.7727 2.22063L13.9995 0L10.2264 2.22063L5.77143 6.96353L3.56644 5.79761L0.266602 9.32452L3.56644 12.8514L17.7727 28L24.4326 20.9396L27.7325 17.4127L17.7727 6.96353L14.0087 3.67124H14L10.2264 6.96353L0.266602 17.4127L3.57566 20.9396L10.2264 28L14.0087 24.3085L10.2264 20.9396L6.93556 17.4127L10.2264 13.894L14.0087 10.6018H14L17.7727 13.894L21.0636 17.4127L17.7727 20.9396L14.0087 24.3085L17.7727 28L31.9698 12.8514L27.7325 9.32452Z" fill="#FA532A"/>
</svg> 