<svg xmlns="http://www.w3.org/2000/svg" width="100" height="30" viewBox="0 0 100 30">
  <path fill="#2b2e2f" d="M10,8h8v2h-3v12h-2V10h-3V8z"/>
  <path fill="#2b2e2f" d="M22,8c4,0,6,2,6,6c0,4-2,6-6,6h-1v2h-2V8H22z M21,18h1c2.5,0,4-1,4-4c0-3-1.5-4-4-4h-1V18z"/>
  <path fill="#2b2e2f" d="M32,8h7v2h-5v4h4v2h-4v4h5v2h-7V8z"/>
  <path fill="#2b2e2f" d="M43,8h2v8c0,3,1,4,3,4s3-1,3-4V8h2v8c0,4-2,6-5,6s-5-2-5-6V8z"/>
  <path fill="#2b2e2f" d="M57,8h7v2h-5v4h4v2h-4v6h-2V8z"/>
  <path fill="#2b2e2f" d="M68,8h2l4,14h-2l-1-3h-4l-1,3h-2L68,8z M68,17h3l-1.5-5L68,17z"/>
</svg> 