<?xml version="1.0" encoding="UTF-8"?>
<svg width="200" height="200" viewBox="0 0 200 200" fill="none" xmlns="http://www.w3.org/2000/svg">
  <rect width="200" height="200" rx="40" fill="url(#grad)"/>
  <path d="M63.248 131V69.4H83.008C88.0533 69.4 92.256 70.28 95.616 72.04C98.976 73.8 101.472 76.2907 103.104 79.512C104.736 82.7333 105.552 86.5333 105.552 90.912C105.552 95.2907 104.736 99.112 103.104 102.376C101.472 105.64 98.976 108.152 95.616 109.912C92.256 111.672 88.0533 112.552 83.008 112.552H71.624L78.04 106.2V131H63.248ZM78.04 107.336L71.624 100.456H82.136C85.9573 100.456 88.832 99.5547 90.76 97.752C92.688 95.9493 93.652 93.336 93.652 89.912C93.652 86.488 92.688 83.8747 90.76 82.072C88.832 80.2693 85.9573 79.368 82.136 79.368H71.624L78.04 72.552V107.336Z" fill="white"/>
  <path d="M136.41 69.4H151.202V131H136.41V69.4Z" fill="white"/>
  <defs>
    <linearGradient id="grad" x1="0" y1="0" x2="200" y2="200" gradientUnits="userSpaceOnUse">
      <stop offset="0%" stop-color="#7952F6"/>
      <stop offset="100%" stop-color="#A08BF0"/>
    </linearGradient>
  </defs>
</svg> 