<svg width="28" height="28" viewBox="0 0 28 28" fill="none" xmlns="http://www.w3.org/2000/svg"><path d="M18.2683 17.5517C18.2683 17.5517 16.7516 16.9724 16.3683 16.7586C16.75 16.3793 18.075 14.7155 18.075 12.0948C18.075 8.3534 15.425 6.5 12.775 6.5C10.125 6.5 7.475 8.3534 7.475 12.0948C7.475 14.7155 8.8 16.3793 9.18167 16.7586C8.79833 16.9724 7.28167 17.5517 7.28167 17.5517C4.05 18.9655 0.25 21.1466 0.25 25.6293H25.3C25.3 21.1466 21.5 18.9655 18.2683 17.5517ZM12.775 9.7931C14.0333 9.7931 14.2167 10.9569 14.2167 12.0948C14.2167 13.2328 14.125 15 12.775 15C11.425 15 11.3333 13.2328 11.3333 12.0948C11.3333 10.9569 11.5167 9.7931 12.775 9.7931ZM12.775 3.10345L15.8833 6.17241L12.775 9.2414L9.66667 6.17241L12.775 3.10345Z" fill="#0076D7"/></svg>
