<svg xmlns="http://www.w3.org/2000/svg" width="150" height="30" viewBox="0 0 150 30">
  <path fill="#2b2e2f" d="M15,8h2l2,11l2-11h2l2,11l2-11h2l-3,14h-2l-2-10l-2,10h-2L15,8z"/>
  <path fill="#2b2e2f" d="M35,8c1.5,0,2.5,0.5,3,1.5V8h2v14h-2v-1.5c-0.5,1-1.5,1.5-3,1.5c-3,0-5-2-5-6s2-6,5-6z M35.5,10c-2,0-3,1.5-3,4s1,4,3,4s3-1.5,3-4S37.5,10,35.5,10z"/>
  <path fill="#2b2e2f" d="M49,8h2v2h-2v8c0,1,0.5,1.5,1.5,1.5h0.5v2h-1c-2,0-3-1-3-3v-8.5h-1.5V8H47V5h2V8z"/>
  <path fill="#2b2e2f" d="M58,12c0-1-1-2-2-2s-2,1-2,2h4z M52,14c0-3,2-6,5-6s4,3,4,6v1h-7c0,1.5,1,3,3,3c1,0,2-0.5,2.5-1.5H61c-0.5,2-2,3.5-4.5,3.5C54,20,52,17,52,14z"/>
  <path fill="#2b2e2f" d="M71,8l3.5,11L78,8h2l-5,14h-2l-5-14H71z"/>
  <path fill="#2b2e2f" d="M88,8h2v14h-2V8z"/>
  <path fill="#2b2e2f" d="M97,8h2v1.5c0.5-1,1.5-1.5,3-1.5c2.5,0,4,1.5,4,4v10h-2v-9c0-1.5-0.5-3-2.5-3c-2,0-2.5,1.5-2.5,3v9h-2V8z"/>
  <path fill="#2b2e2f" d="M112,8h2v12h5v2h-7V8z"/>
  <path fill="#2b2e2f" d="M124,6h2v2h-2V6z M124,8h2v14h-2V8z"/>
  <path fill="#2b2e2f" d="M135,8c1.5,0,2.5,0.5,3,1.5V8h2v14h-2v-1.5c-0.5,1-1.5,1.5-3,1.5c-3,0-5-2-5-6S132,8,135,8z M135.5,10c-2,0-3,1.5-3,4s1,4,3,4s3-1.5,3-4S137.5,10,135.5,10z"/>
</svg> 